<svg width="142" height="132" viewBox="0 0 142 132" fill="none" xmlns="http://www.w3.org/2000/svg">
<g filter="url(#filter0_i_48_1186)">
<path fill-rule="evenodd" clip-rule="evenodd" d="M35.4994 -0.0045166H40.5708C43.3601 -0.0045166 45.6422 2.27762 45.6422 5.0669V12.319C45.6422 13.8912 44.3237 15.2097 42.7515 15.2097H35.4994C32.7101 15.2097 30.428 12.9276 30.428 10.1383V5.0669C30.428 2.27762 32.7101 -0.0045166 35.4994 -0.0045166ZM111.571 5.0669V10.1383C111.571 12.9276 109.289 15.2097 106.5 15.2097H99.2478C97.6757 15.2097 96.3571 13.8912 96.3571 12.319V5.0669C96.3571 2.27762 98.6393 -0.0045166 101.429 -0.0045166H106.5C109.289 -0.0045166 111.571 2.27762 111.571 5.0669ZM50.6642 132.005H55.7863C58.5756 132.005 60.8578 129.722 60.8578 126.933V121.862C60.8578 119.072 58.5756 116.79 55.7863 116.79H43.4627C41.8906 116.79 40.572 118.109 40.572 119.681V121.912C40.572 127.491 45.0856 132.005 50.6642 132.005ZM81.1432 121.862V126.933C81.1432 129.722 83.4253 132.005 86.2146 132.005H91.4382C96.9661 132.005 101.429 127.542 101.429 122.014V119.681C101.429 118.058 100.11 116.79 98.5382 116.79H86.2146C83.4253 116.79 81.1432 119.072 81.1432 121.862ZM136.929 35.6476C134.139 35.6476 131.857 37.9298 131.857 40.719V47.9712C131.857 49.594 130.539 50.8619 128.966 50.8619H119.534C118.012 50.8619 116.694 49.7969 116.491 48.2755C115.324 39.0455 107.971 31.8441 98.7407 30.7284C97.3714 30.5762 96.3571 29.3084 96.3571 27.8884V18.1005C96.3571 16.5284 95.0386 15.2098 93.4664 15.2098H91.6407C85.8593 15.2098 81.1429 19.9262 81.1429 25.7077V27.6855C81.1429 29.3084 79.8243 30.5762 78.2521 30.5762H63.7479C62.1757 30.5762 60.8571 29.3084 60.8571 27.6855V25.9612C60.8571 20.0277 56.0393 15.2098 50.1057 15.2098H48.5843C46.9614 15.2098 45.6429 16.5284 45.6429 18.1005V27.8884C45.6429 29.3084 44.6286 30.5762 43.2593 30.7284C34.0293 31.8948 26.5743 39.0455 25.3571 48.2248C25.1543 49.6955 23.8357 50.7605 22.3143 50.8112L13.1857 50.8619C11.5629 50.8619 10.295 49.594 10.295 47.9712V40.719C10.295 37.9298 8.01286 35.6476 5.22357 35.6476H5.07143C2.28214 35.6476 0 37.9298 0 40.719V61.0047C0 63.794 2.28214 66.0761 5.07143 66.0761H7.25214C8.82429 66.0761 10.1429 67.3947 10.1429 68.9669V71.1476C10.1429 76.7261 14.7071 81.2904 20.2857 81.2904H22.4664C24.0386 81.2904 25.3571 82.609 25.3571 84.1811V106.647C25.3571 112.226 29.9214 116.79 35.5 116.79H37.6807C39.3036 116.79 40.5714 115.472 40.5714 113.9V99.3954C40.5714 97.7725 41.89 96.5047 43.4621 96.5047H98.5379C100.161 96.5047 101.429 97.8232 101.429 99.3954V113.9C101.429 115.522 102.747 116.79 104.319 116.79H106.551C112.129 116.79 116.643 112.277 116.643 106.698V84.1811C116.643 82.5583 117.961 81.2904 119.534 81.2904H121.866C127.394 81.2904 131.857 76.8275 131.857 71.2997V68.9669C131.857 67.344 133.176 66.0761 134.748 66.0761H136.929C139.718 66.0761 142 63.794 142 61.0047V40.719C142 37.9298 139.718 35.6476 136.929 35.6476Z" fill="url(#paint0_linear_48_1186)"/>
</g>
<path fill-rule="evenodd" clip-rule="evenodd" d="M45.5709 70.9957C42.7593 70.9957 40.5 68.6963 40.5 65.835V55.8707C40.5 53.0094 42.7593 50.71 45.5709 50.71C48.3825 50.71 50.6418 53.0094 50.6418 55.8707V65.835C50.692 68.6963 48.3825 70.9957 45.5709 70.9957ZM96.2854 70.9957C93.4733 70.9957 91.214 68.6963 91.214 65.835V55.8707C91.214 53.0094 93.4733 50.71 96.2854 50.71C99.0975 50.71 101.357 53.0094 101.357 55.8707V65.835C101.357 68.6451 99.0975 70.9957 96.2854 70.9957Z" fill="#282F38"/>
<defs>
<filter id="filter0_i_48_1186" x="0" y="-0.0045166" width="142" height="136.009" filterUnits="userSpaceOnUse" color-interpolation-filters="sRGB">
<feFlood flood-opacity="0" result="BackgroundImageFix"/>
<feBlend mode="normal" in="SourceGraphic" in2="BackgroundImageFix" result="shape"/>
<feColorMatrix in="SourceAlpha" type="matrix" values="0 0 0 0 0 0 0 0 0 0 0 0 0 0 0 0 0 0 127 0" result="hardAlpha"/>
<feOffset dy="4"/>
<feGaussianBlur stdDeviation="2"/>
<feComposite in2="hardAlpha" operator="arithmetic" k2="-1" k3="1"/>
<feColorMatrix type="matrix" values="0 0 0 0 1 0 0 0 0 1 0 0 0 0 1 0 0 0 0.25 0"/>
<feBlend mode="normal" in2="shape" result="effect1_innerShadow_48_1186"/>
</filter>
<linearGradient id="paint0_linear_48_1186" x1="139" y1="66.0001" x2="3" y2="66.0001" gradientUnits="userSpaceOnUse">
<stop stop-color="#3279CD"/>
<stop offset="1" stop-color="#B53FD2"/>
<stop offset="1" stop-color="#B53FD2"/>
</linearGradient>
</defs>
</svg>
